<?xml version="1.0" encoding="iso-8859-1"?>
<!-- Generator: Adobe Illustrator 19.0.0, SVG Export Plug-In . SVG Version: 6.00 Build 0)  -->
<svg version="1.1" id="Layer_1" xmlns="http://www.w3.org/2000/svg" xmlns:xlink="http://www.w3.org/1999/xlink" x="0px" y="0px"
	 viewBox="0 0 512 512" style="enable-background:new 0 0 512 512;" xml:space="preserve">
<g>
	<rect x="282.122" y="250.775" style="fill:#939598;" width="52.245" height="36.571"/>
	<polygon style="fill:#939598;" points="334.367,287.347 334.367,329.143 240.327,329.143 240.327,287.347 282.122,287.347 	"/>
</g>
<polygon style="fill:#D1D3D4;" points="428.408,329.143 428.408,365.714 391.837,365.714 355.265,365.714 120.163,365.714 
	83.592,365.714 83.592,329.143 141.061,329.143 240.327,329.143 334.367,329.143 370.939,329.143 "/>
<rect x="208.98" y="407.51" style="fill:#F1F2F2;" width="94.041" height="52.245"/>
<path style="fill:#31C0D8;" d="M156.735,501.551h-36.571V365.714h235.102h36.571v135.837H156.735z M303.02,459.755V407.51H208.98
	v52.245H303.02z"/>
<path style="fill:#FFD248;" d="M256,10.449c92.367,0,167.184,74.817,167.184,167.184h-52.245H141.061H88.816
	C88.816,85.266,163.633,10.449,256,10.449z"/>
<g>
	<path style="fill:#231F20;" d="M428.408,318.694h-47.02V188.082h41.796c5.77,0,10.449-4.678,10.449-10.449
		C433.633,79.686,353.947,0,256,0S78.367,79.686,78.367,177.633c0,5.771,4.678,10.449,10.449,10.449h41.796v130.612h-47.02
		c-5.771,0-10.449,4.679-10.449,10.449v36.571c0,5.77,4.678,10.449,10.449,10.449h26.122v125.388c0,5.77,4.678,10.449,10.449,10.449
		h271.673c5.77,0,10.449-4.679,10.449-10.449V376.163h26.122c5.77,0,10.449-4.679,10.449-10.449v-36.571
		C438.857,323.373,434.178,318.694,428.408,318.694z M256,20.898c82.911,0,150.992,64.718,156.39,146.286H99.61
		C105.008,85.616,173.089,20.898,256,20.898z M151.51,188.082h208.98v130.612h-15.673v-31.347v-36.571
		c0-5.771-4.679-10.449-10.449-10.449h-52.245c-5.771,0-10.449,4.678-10.449,10.449v26.122h-31.347
		c-5.771,0-10.449,4.679-10.449,10.449v31.347H151.51V188.082z M282.122,297.796h41.796v20.898h-73.143v-20.898H282.122z
		 M323.918,276.898h-31.347v-15.673h31.347V276.898z M381.388,491.102H167.184v-62.694h-20.898v62.694h-15.673V376.163h214.204
		v62.694h20.898v-62.694h15.673V491.102z M417.959,355.265h-26.122H120.163H94.041v-15.673h146.286h94.041h83.592V355.265z"/>
	<path style="fill:#231F20;" d="M303.02,397.061H208.98c-5.771,0-10.449,4.679-10.449,10.449v52.245
		c0,5.77,4.678,10.449,10.449,10.449h94.041c5.77,0,10.449-4.679,10.449-10.449V407.51
		C313.469,401.74,308.79,397.061,303.02,397.061z M292.571,449.306h-73.143v-31.347h73.143V449.306z"/>
	<rect x="146.286" y="391.837" style="fill:#231F20;" width="20.898" height="20.898"/>
	<rect x="344.816" y="454.531" style="fill:#231F20;" width="20.898" height="20.898"/>
	<rect x="156.735" y="88.816" style="fill:#231F20;" width="20.898" height="20.898"/>
	<rect x="329.143" y="94.041" style="fill:#231F20;" width="20.898" height="20.898"/>
	<rect x="193.306" y="57.469" style="fill:#231F20;" width="20.898" height="20.898"/>
	<rect x="355.265" y="130.612" style="fill:#231F20;" width="20.898" height="20.898"/>
	<rect x="266.449" y="83.592" style="fill:#231F20;" width="20.898" height="20.898"/>
	<rect x="214.204" y="99.265" style="fill:#231F20;" width="20.898" height="20.898"/>
	<rect x="308.245" y="52.245" style="fill:#231F20;" width="20.898" height="20.898"/>
	<rect x="266.449" y="130.612" style="fill:#231F20;" width="20.898" height="20.898"/>
	<rect x="245.551" y="31.347" style="fill:#231F20;" width="20.898" height="20.898"/>
	<rect x="177.633" y="125.388" style="fill:#231F20;" width="20.898" height="20.898"/>
	<rect x="125.388" y="135.837" style="fill:#231F20;" width="20.898" height="20.898"/>
</g>
<g>
</g>
<g>
</g>
<g>
</g>
<g>
</g>
<g>
</g>
<g>
</g>
<g>
</g>
<g>
</g>
<g>
</g>
<g>
</g>
<g>
</g>
<g>
</g>
<g>
</g>
<g>
</g>
<g>
</g>
</svg>
